<mxfile host="app.diagrams.net" modified="2024-05-20T14:58:59.558Z" agent="Mozilla/5.0 (X11; Linux x86_64) AppleWebKit/537.36 (KHTML, like Gecko) Chrome/123.0.0.0 Safari/537.36 OPR/109.0.0.0" version="24.4.0" etag="BROc1yWH7xhel-f1UlJl" type="github">
  <diagram name="Page-1" id="UTbe-aJMewigLtIilajT">
    <mxGraphModel>
      <root>
        <mxCell id="0" />
        <mxCell id="1" parent="0" />
      </root>
    </mxGraphModel>
  </diagram>
</mxfile>
